<svg xmlns="http://www.w3.org/2000/svg" viewBox="0 0 230 230">
  <circle cx="115.5" cy="115.5" r="113.281"/>
  <path d="M49.267 164.982h17.71v-39.053h15.817a40.9 40.9 0 0014.418-2.27 27.43 27.43 0 009.877-6.131 23.712 23.712 0 005.676-9.044 34.645 34.645 0 00-.038-22.251A24.38 24.38 0 00106.9 77a28.008 28.008 0 00-10.1-6.282 41.974 41.974 0 00-14.762-2.308H49.267v96.573zm32.392-81.209a19.152 19.152 0 016.7 1.06 12.671 12.671 0 014.692 2.952 12.014 12.014 0 012.762 4.465 16.721 16.721 0 01.908 5.6 15.571 15.571 0 01-.87 5.3 10.8 10.8 0 01-2.725 4.2 13.018 13.018 0 01-4.73 2.8 20.645 20.645 0 01-6.887 1.022H66.976v-27.4h14.683zm40.491-.3h26.186v81.512h17.71V83.471h27.246V68.41H122.15v15.061z" fill="#fff" fill-rule="evenodd"/>
</svg>
