<svg xmlns="http://www.w3.org/2000/svg" viewBox="0 0.5 300 240">
  <circle cx="150.5" cy="120.5" r="113.281"/>
  <path d="M84.267 169.982h17.71v-39.053h15.818a40.9 40.9 0 0014.418-2.27 27.43 27.43 0 009.877-6.131 23.712 23.712 0 005.676-9.044 34.645 34.645 0 00-.038-22.251A24.38 24.38 0 00141.9 82a28.009 28.009 0 00-10.1-6.282 41.978 41.978 0 00-14.759-2.308H84.267v96.573zm32.393-81.209a19.152 19.152 0 016.7 1.06 12.672 12.672 0 014.692 2.952 12.019 12.019 0 012.763 4.465 16.733 16.733 0 01.908 5.6 15.582 15.582 0 01-.87 5.3 10.807 10.807 0 01-2.725 4.2 13.017 13.017 0 01-4.73 2.8 20.647 20.647 0 01-6.887 1.022h-14.535v-27.4h14.683zm40.491-.3h26.186v81.512h17.71V88.471h27.246V73.41H157.15v15.061z" fill="#fff" fill-rule="evenodd"/>
</svg>
